# 3ds Max Wavefront OBJ Exporter v0.97b - (c)2007 guruware
# File Created: 04.06.2018 21:58:46

mtllib ºÒ°í±â.mtl

#
# object Cylinder001
#

v  161.4979 0.0000 134.2414
v  106.1991 0.0000 180.6427
v  38.3650 0.0000 205.3322
v  210.1271 0.0000 0.6342
v  161.4980 0.0000 -132.9729
v  -193.0493 0.0000 71.7250
v  -101.6567 0.0000 180.6425
v  -33.8226 0.0000 205.3322
v  -156.9556 0.0000 134.2413
v  -101.6566 0.0000 -179.3742
v  -193.0493 0.0000 -70.4567
v  -205.5845 0.0000 0.6342
v  -156.9555 0.0000 -132.9729
v  38.3650 0.0000 -204.0638
v  -33.8225 0.0000 -204.0638
v  106.1992 0.0000 -179.3742
v  197.5918 0.0000 -70.4567
v  197.5918 0.0000 71.7252
v  202.6293 14.2953 -72.4335
v  215.5436 14.2953 0.8073
v  165.4439 14.2953 -136.8405
v  115.1440 14.2953 -194.8672
v  38.5869 14.2953 -210.0814
v  -36.9290 14.2953 -221.6817
v  -110.6015 14.2953 -194.8672
v  -170.6598 14.2953 -144.4722
v  -209.8601 14.2953 -76.5753
v  -223.4742 14.2953 0.6342
v  -209.8602 14.2953 77.8437
v  -170.6599 14.2953 145.7406
v  -110.6016 14.2953 196.1355
v  -36.9291 14.2953 222.9501
v  41.4715 14.2953 222.9502
v  115.1439 14.2953 196.1357
v  165.4438 14.2953 138.4553
v  202.6292 14.2953 74.0484
v  212.2850 28.5907 -75.9480
v  225.8190 28.5907 0.8073
v  173.3153 28.5907 -143.4454
v  113.6103 28.5907 -193.5439
v  40.3713 28.5907 -220.2007
v  -37.5681 28.5907 -220.2007
v  -110.8072 28.5907 -193.5439
v  -170.5122 28.5907 -143.4454
v  -209.4818 28.5907 -75.9480
v  -223.0159 28.5907 0.8073
v  -209.4819 28.5907 77.5626
v  -170.5122 28.5907 145.0601
v  -110.8072 28.5907 195.1585
v  -37.5682 28.5907 221.8154
v  40.3712 28.5907 221.8154
v  113.6102 28.5907 195.1586
v  173.3152 28.5907 145.0602
v  212.2850 28.5907 77.5628
v  212.2850 42.8860 -75.9480
v  225.8190 42.8860 0.8073
v  173.3153 42.8860 -143.4454
v  113.6103 42.8860 -193.5439
v  40.3713 42.8860 -220.2007
v  -37.5681 42.8860 -220.2007
v  -110.8072 42.8860 -193.5439
v  -169.6139 42.8860 -146.7624
v  -211.4512 42.8860 -75.0979
v  -226.1859 42.8860 -1.8578
v  -211.3271 42.8860 80.7946
v  -173.0415 42.8860 144.1287
v  -110.8072 42.8860 195.1585
v  -37.5682 42.8860 221.8154
v  40.3712 42.8860 221.8154
v  113.6102 42.8860 195.1586
v  173.3152 42.8860 145.0602
v  212.2850 42.8860 77.5628
v  202.0263 57.1814 -72.8961
v  214.9917 57.1814 0.6342
v  164.6940 57.1814 -137.5575
v  107.4976 57.1814 -185.5510
v  37.3359 57.1814 -211.0877
v  -37.3287 57.1814 -211.0877
v  -107.4905 57.1814 -185.5509
v  -164.6868 57.1814 -137.5575
v  -202.0191 57.1814 -72.8961
v  -214.9845 57.1814 0.6342
v  -202.0192 57.1814 74.1644
v  -164.6869 57.1814 138.8258
v  -107.4905 57.1814 186.8193
v  -37.3288 57.1814 212.3561
v  37.3358 57.1814 212.3562
v  107.4975 57.1814 186.8194
v  164.6940 57.1814 138.8260
v  202.0263 57.1814 74.1646
v  177.9267 71.4767 -64.1245
v  189.3453 71.4767 0.6342
v  145.0478 71.4767 -121.0724
v  94.6745 71.4767 -163.3406
v  32.8824 71.4767 -185.8310
v  -32.8753 71.4767 -185.8310
v  -94.6673 71.4767 -163.3406
v  -145.0406 71.4767 -121.0724
v  -177.9195 71.4767 -64.1245
v  -189.3382 71.4767 0.6342
v  -177.9195 71.4767 65.3929
v  -145.0406 71.4767 122.3407
v  -94.6674 71.4767 164.6089
v  -32.8753 71.4767 187.0994
v  32.8824 71.4767 187.0994
v  94.6744 71.4767 164.6090
v  145.0477 71.4767 122.3408
v  177.9266 71.4767 65.3930
# 108 vertices

vn 0.0000 -1.0000 -0.0000
vn 0.8253 -0.5646 -0.0018
vn 0.7764 -0.5642 -0.2811
vn 0.6751 -0.6954 -0.2463
vn 0.7184 -0.6956 0.0007
vn 0.6519 -0.5992 -0.4647
vn 0.5806 -0.6817 -0.4452
vn 0.1817 -0.9062 -0.3818
vn 0.4932 -0.4046 -0.7701
vn 0.1956 -0.6250 -0.7557
vn 0.1236 -0.7057 -0.6977
vn -0.0703 -0.9145 -0.3985
vn -0.0952 -0.4248 -0.9003
vn -0.2023 -0.9145 -0.3505
vn -0.4369 -0.4627 -0.7714
vn -0.3100 -0.9145 -0.2601
vn -0.6692 -0.4775 -0.5694
vn -0.3803 -0.9145 -0.1384
vn -0.8185 -0.4887 -0.3022
vn -0.4047 -0.9145 -0.0000
vn -0.8690 -0.4949 -0.0015
vn -0.3803 -0.9145 0.1384
vn -0.8160 -0.4953 0.2982
vn -0.3100 -0.9145 0.2601
vn -0.6655 -0.4898 0.5633
vn -0.2023 -0.9145 0.3505
vn -0.4338 -0.4791 0.7630
vn -0.0703 -0.9145 0.3985
vn -0.1467 -0.4647 0.8732
vn 0.0703 -0.9145 0.3985
vn 0.1628 -0.4484 0.8789
vn 0.2404 -0.9060 0.3483
vn 0.4721 -0.4408 0.7634
vn 0.6252 -0.5860 0.5155
vn 0.5522 -0.7149 0.4290
vn 0.7722 -0.5723 0.2760
vn 0.6715 -0.6989 0.2464
vn 0.8514 -0.4231 -0.3099
vn 0.9061 -0.4231 0.0000
vn 0.6941 -0.4231 -0.5824
vn 0.5246 0.0969 -0.8458
vn 0.1368 -0.4099 -0.9018
vn -0.1461 0.0634 -0.9872
vn -0.4989 0.0611 -0.8645
vn -0.7810 -0.0358 -0.6235
vn -0.9336 -0.0634 -0.3526
vn -0.9872 -0.1586 0.0195
vn -0.9348 -0.1399 0.3264
vn -0.7548 -0.0423 0.6546
vn -0.5035 0.0466 0.8627
vn -0.1790 0.0630 0.9818
vn 0.1669 0.0819 0.9826
vn 0.4923 0.1008 0.8645
vn 0.7129 -0.4096 0.5692
vn 0.8514 -0.4231 0.3099
vn 0.8485 0.4310 -0.3072
vn 0.9011 0.4336 0.0004
vn 0.6948 0.4255 -0.5798
vn 0.4572 0.4175 -0.7853
vn 0.1623 0.4075 -0.8987
vn -0.1556 0.3965 -0.9047
vn -0.4507 0.3895 -0.8032
vn -0.6970 0.3277 -0.6378
vn -0.8910 0.3236 -0.3183
vn -0.9637 0.2652 -0.0294
vn -0.8921 0.2732 0.3600
vn -0.7325 0.3302 0.5954
vn -0.4549 0.3924 0.7994
vn -0.1550 0.4043 0.9014
vn 0.1614 0.4147 0.8955
vn 0.4554 0.4234 0.7832
vn 0.6929 0.4297 0.5790
vn 0.8472 0.4331 0.3076
vn 0.4375 0.8846 -0.1614
vn 0.4632 0.8863 -0.0005
vn 0.3601 0.8811 -0.3066
vn 0.2373 0.8759 -0.4200
vn 0.0807 0.8696 -0.4872
vn -0.0930 0.8626 -0.4973
vn -0.2626 0.8558 -0.4456
vn -0.3845 0.8697 -0.3096
vn -0.4600 0.8709 -0.1728
vn -0.4580 0.8890 0.0041
vn -0.4357 0.8876 0.1495
vn -0.3665 0.8745 0.3176
vn -0.2565 0.8613 0.4387
vn -0.0915 0.8675 0.4889
vn 0.0797 0.8742 0.4790
vn 0.2345 0.8797 0.4136
vn 0.3569 0.8838 0.3027
vn 0.4354 0.8860 0.1595
vn 0.2772 0.9555 -0.1009
vn 0.2950 0.9555 0.0000
vn 0.2260 0.9555 -0.1896
vn 0.1475 0.9555 -0.2554
vn 0.0512 0.9555 -0.2905
vn -0.0512 0.9555 -0.2905
vn -0.1475 0.9555 -0.2555
vn -0.2260 0.9555 -0.1896
vn -0.2772 0.9555 -0.1009
vn -0.2950 0.9555 -0.0000
vn -0.2772 0.9555 0.1009
vn -0.2260 0.9555 0.1896
vn -0.1475 0.9555 0.2554
vn -0.0512 0.9555 0.2905
vn 0.0512 0.9555 0.2905
vn 0.1475 0.9555 0.2555
vn 0.2260 0.9555 0.1896
vn 0.2772 0.9555 0.1009
vn 0.0000 1.0000 -0.0000
# 110 vertex normals

vt 0.1959 0.0000 0.0000
vt 0.0881 0.0000 0.0000
vt 0.0300 0.0000 0.0000
vt 0.7500 0.0000 0.0000
vt 0.8611 0.0000 0.0000
vt 0.3331 0.0000 0.0000
vt 0.0842 0.0000 0.0000
vt 0.0286 0.0000 0.0000
vt 0.1899 0.0000 0.0000
vt 0.9128 0.0000 0.0000
vt 0.6604 0.0000 0.0000
vt 0.4965 0.0000 0.0000
vt 0.8049 0.0000 0.0000
vt 0.9722 0.0000 0.0000
vt 0.9709 0.0000 0.0000
vt 0.9167 0.0000 0.0000
vt 0.8056 0.0000 0.0000
vt 0.3404 0.0000 0.0000
vt 0.8056 0.2000 0.0000
vt 0.7500 0.2000 0.0000
vt 0.8611 0.2000 0.0000
vt 0.9167 0.2000 0.0000
vt 0.9722 0.2000 0.0000
vt -0.0278 0.0000 0.0000
vt 0.0278 0.0000 0.0000
vt 0.0278 0.2000 0.0000
vt -0.0278 0.2000 0.0000
vt 0.0833 0.0000 0.0000
vt 0.0833 0.2000 0.0000
vt 0.1389 0.0000 0.0000
vt 0.1389 0.2000 0.0000
vt 0.1944 0.0000 0.0000
vt 0.1944 0.2000 0.0000
vt 0.2500 0.0000 0.0000
vt 0.2500 0.2000 0.0000
vt 0.3056 0.0000 0.0000
vt 0.3056 0.2000 0.0000
vt 0.3611 0.0000 0.0000
vt 0.3611 0.2000 0.0000
vt 0.4167 0.0000 0.0000
vt 0.4167 0.2000 0.0000
vt 0.4722 0.0000 0.0000
vt 0.4722 0.2000 0.0000
vt 0.5278 0.0000 0.0000
vt 0.5278 0.2000 0.0000
vt 0.5833 0.0000 0.0000
vt 0.5833 0.2000 0.0000
vt 0.6389 0.0000 0.0000
vt 0.6389 0.2000 0.0000
vt 0.6944 0.0000 0.0000
vt 0.6944 0.2000 0.0000
vt 0.8056 0.4000 0.0000
vt 0.7500 0.4000 0.0000
vt 0.8611 0.4000 0.0000
vt 0.9167 0.4000 0.0000
vt 0.9722 0.4000 0.0000
vt 0.0278 0.4000 0.0000
vt -0.0278 0.4000 0.0000
vt 0.0833 0.4000 0.0000
vt 0.1389 0.4000 0.0000
vt 0.1944 0.4000 0.0000
vt 0.2500 0.4000 0.0000
vt 0.3056 0.4000 0.0000
vt 0.3611 0.4000 0.0000
vt 0.4167 0.4000 0.0000
vt 0.4722 0.4000 0.0000
vt 0.5278 0.4000 0.0000
vt 0.5833 0.4000 0.0000
vt 0.6389 0.4000 0.0000
vt 0.6944 0.4000 0.0000
vt 0.8056 0.6000 0.0000
vt 0.7500 0.6000 0.0000
vt 0.8611 0.6000 0.0000
vt 0.9167 0.6000 0.0000
vt 0.9722 0.6000 0.0000
vt 0.0278 0.6000 0.0000
vt -0.0278 0.6000 0.0000
vt 0.0833 0.6000 0.0000
vt 0.1389 0.6000 0.0000
vt 0.1944 0.6000 0.0000
vt 0.2500 0.6000 0.0000
vt 0.3056 0.6000 0.0000
vt 0.3611 0.6000 0.0000
vt 0.4167 0.6000 0.0000
vt 0.4722 0.6000 0.0000
vt 0.5278 0.6000 0.0000
vt 0.5833 0.6000 0.0000
vt 0.6389 0.6000 0.0000
vt 0.6944 0.6000 0.0000
vt 0.8056 0.8000 0.0000
vt 0.7500 0.8000 0.0000
vt 0.8611 0.8000 0.0000
vt 0.9167 0.8000 0.0000
vt 0.9722 0.8000 0.0000
vt 0.0278 0.8000 0.0000
vt -0.0278 0.8000 0.0000
vt 0.0833 0.8000 0.0000
vt 0.1389 0.8000 0.0000
vt 0.1944 0.8000 0.0000
vt 0.2500 0.8000 0.0000
vt 0.3056 0.8000 0.0000
vt 0.3611 0.8000 0.0000
vt 0.4167 0.8000 0.0000
vt 0.4722 0.8000 0.0000
vt 0.5278 0.8000 0.0000
vt 0.5833 0.8000 0.0000
vt 0.6389 0.8000 0.0000
vt 0.6944 0.8000 0.0000
vt 0.8056 1.0000 0.0000
vt 0.7500 1.0000 0.0000
vt 0.8611 1.0000 0.0000
vt 0.9167 1.0000 0.0000
vt 0.9722 1.0000 0.0000
vt 0.0278 1.0000 0.0000
vt -0.0278 1.0000 0.0000
vt 0.0833 1.0000 0.0000
vt 0.1389 1.0000 0.0000
vt 0.1944 1.0000 0.0000
vt 0.2500 1.0000 0.0000
vt 0.3056 1.0000 0.0000
vt 0.3611 1.0000 0.0000
vt 0.4167 1.0000 0.0000
vt 0.4722 1.0000 0.0000
vt 0.5278 1.0000 0.0000
vt 0.5833 1.0000 0.0000
vt 0.6389 1.0000 0.0000
vt 0.6944 1.0000 0.0000
vt 0.1959 1.0000 0.0000
vt 0.0300 1.0000 0.0000
vt 0.9128 1.0000 0.0000
vt 0.9709 1.0000 0.0000
vt 0.3332 1.0000 0.0000
vt 0.6604 1.0000 0.0000
vt 0.8050 1.0000 0.0000
vt 0.4966 1.0000 0.0000
vt 0.0842 1.0000 0.0000
vt 0.1900 1.0000 0.0000
vt 0.0287 1.0000 0.0000
vt 0.0881 1.0000 0.0000
# 139 texture coords

g Cylinder001
usemtl wire_105070007
s off
f 1/1/1 2/2/1 3/3/1 4/4/1 
f 5/5/1 4/4/1 3/3/1 6/6/1 
f 7/7/1 6/6/1 3/3/1 8/8/1 
f 7/7/1 9/9/1 6/6/1 
f 10/10/1 5/5/1 6/6/1 11/11/1 
f 6/6/1 12/12/1 11/11/1 
f 11/11/1 13/13/1 10/10/1 
f 14/14/1 5/5/1 10/10/1 15/15/1 
f 14/14/1 16/16/1 5/5/1 
f 5/5/1 17/17/1 4/4/1 
f 18/18/1 1/1/1 4/4/1 
f 4/4/2 17/17/3 19/19/4 20/20/5 
f 17/17/3 5/5/6 21/21/7 19/19/4 
f 5/5/6 16/16/8 22/22/9 21/21/7 
f 16/16/8 14/14/10 23/23/11 22/22/9 
f 14/24/10 15/25/12 24/26/13 23/27/11 
f 15/25/12 10/28/14 25/29/15 24/26/13 
f 10/28/14 13/30/16 26/31/17 25/29/15 
f 13/30/16 11/32/18 27/33/19 26/31/17 
f 11/32/18 12/34/20 28/35/21 27/33/19 
f 12/34/20 6/36/22 29/37/23 28/35/21 
f 6/36/22 9/38/24 30/39/25 29/37/23 
f 9/38/24 7/40/26 31/41/27 30/39/25 
f 7/40/26 8/42/28 32/43/29 31/41/27 
f 8/42/28 3/44/30 33/45/31 32/43/29 
f 3/44/30 2/46/32 34/47/33 33/45/31 
f 2/46/32 1/48/34 35/49/35 34/47/33 
f 1/48/34 18/50/36 36/51/37 35/49/35 
f 18/50/36 4/4/2 20/20/5 36/51/37 
f 20/20/5 19/19/4 37/52/38 38/53/39 
f 19/19/4 21/21/7 39/54/40 37/52/38 
f 21/21/7 22/22/9 40/55/41 39/54/40 
f 22/22/9 23/23/11 41/56/42 40/55/41 
f 23/27/11 24/26/13 42/57/43 41/58/42 
f 24/26/13 25/29/15 43/59/44 42/57/43 
f 25/29/15 26/31/17 44/60/45 43/59/44 
f 26/31/17 27/33/19 45/61/46 44/60/45 
f 27/33/19 28/35/21 46/62/47 45/61/46 
f 28/35/21 29/37/23 47/63/48 46/62/47 
f 29/37/23 30/39/25 48/64/49 47/63/48 
f 30/39/25 31/41/27 49/65/50 48/64/49 
f 31/41/27 32/43/29 50/66/51 49/65/50 
f 32/43/29 33/45/31 51/67/52 50/66/51 
f 33/45/31 34/47/33 52/68/53 51/67/52 
f 34/47/33 35/49/35 53/69/54 52/68/53 
f 35/49/35 36/51/37 54/70/55 53/69/54 
f 36/51/37 20/20/5 38/53/39 54/70/55 
f 38/53/39 37/52/38 55/71/56 56/72/57 
f 37/52/38 39/54/40 57/73/58 55/71/56 
f 39/54/40 40/55/41 58/74/59 57/73/58 
f 40/55/41 41/56/42 59/75/60 58/74/59 
f 41/58/42 42/57/43 60/76/61 59/77/60 
f 42/57/43 43/59/44 61/78/62 60/76/61 
f 43/59/44 44/60/45 62/79/63 61/78/62 
f 44/60/45 45/61/46 63/80/64 62/79/63 
f 45/61/46 46/62/47 64/81/65 63/80/64 
f 46/62/47 47/63/48 65/82/66 64/81/65 
f 47/63/48 48/64/49 66/83/67 65/82/66 
f 48/64/49 49/65/50 67/84/68 66/83/67 
f 49/65/50 50/66/51 68/85/69 67/84/68 
f 50/66/51 51/67/52 69/86/70 68/85/69 
f 51/67/52 52/68/53 70/87/71 69/86/70 
f 52/68/53 53/69/54 71/88/72 70/87/71 
f 53/69/54 54/70/55 72/89/73 71/88/72 
f 54/70/55 38/53/39 56/72/57 72/89/73 
f 56/72/57 55/71/56 73/90/74 74/91/75 
f 55/71/56 57/73/58 75/92/76 73/90/74 
f 57/73/58 58/74/59 76/93/77 75/92/76 
f 58/74/59 59/75/60 77/94/78 76/93/77 
f 59/77/60 60/76/61 78/95/79 77/96/78 
f 60/76/61 61/78/62 79/97/80 78/95/79 
f 61/78/62 62/79/63 80/98/81 79/97/80 
f 62/79/63 63/80/64 81/99/82 80/98/81 
f 63/80/64 64/81/65 82/100/83 81/99/82 
f 64/81/65 65/82/66 83/101/84 82/100/83 
f 65/82/66 66/83/67 84/102/85 83/101/84 
f 66/83/67 67/84/68 85/103/86 84/102/85 
f 67/84/68 68/85/69 86/104/87 85/103/86 
f 68/85/69 69/86/70 87/105/88 86/104/87 
f 69/86/70 70/87/71 88/106/89 87/105/88 
f 70/87/71 71/88/72 89/107/90 88/106/89 
f 71/88/72 72/89/73 90/108/91 89/107/90 
f 72/89/73 56/72/57 74/91/75 90/108/91 
f 74/91/75 73/90/74 91/109/92 92/110/93 
f 73/90/74 75/92/76 93/111/94 91/109/92 
f 75/92/76 76/93/77 94/112/95 93/111/94 
f 76/93/77 77/94/78 95/113/96 94/112/95 
f 77/96/78 78/95/79 96/114/97 95/115/96 
f 78/95/79 79/97/80 97/116/98 96/114/97 
f 79/97/80 80/98/81 98/117/99 97/116/98 
f 80/98/81 81/99/82 99/118/100 98/117/99 
f 81/99/82 82/100/83 100/119/101 99/118/100 
f 82/100/83 83/101/84 101/120/102 100/119/101 
f 83/101/84 84/102/85 102/121/103 101/120/102 
f 84/102/85 85/103/86 103/122/104 102/121/103 
f 85/103/86 86/104/87 104/123/105 103/122/104 
f 86/104/87 87/105/88 105/124/106 104/123/105 
f 87/105/88 88/106/89 106/125/107 105/124/106 
f 88/106/89 89/107/90 107/126/108 106/125/107 
f 89/107/90 90/108/91 108/127/109 107/126/108 
f 90/108/91 74/91/75 92/110/93 108/127/109 
f 92/110/110 91/109/110 93/111/110 107/128/110 
f 105/129/110 107/128/110 93/111/110 97/130/110 
f 95/113/110 97/130/110 93/111/110 94/112/110 
f 95/113/110 96/131/110 97/130/110 
f 101/132/110 105/129/110 97/130/110 99/133/110 
f 97/130/110 98/134/110 99/133/110 
f 99/133/110 100/135/110 101/132/110 
f 103/136/110 105/129/110 101/132/110 102/137/110 
f 103/136/110 104/138/110 105/129/110 
f 105/129/110 106/139/110 107/128/110 
f 108/127/110 92/110/110 107/128/110 
# 100 polygons - 12 triangles

